<?xml version="1.0" encoding="UTF-8" standalone="no"?>
<svg width="36px" height="36px" viewBox="0 0 36 36" version="1.1" xmlns="http://www.w3.org/2000/svg" xmlns:xlink="http://www.w3.org/1999/xlink" xmlns:sketch="http://www.bohemiancoding.com/sketch/ns">
    <title>Slice 1</title>
    <description>Created with Sketch (http://www.bohemiancoding.com/sketch)</description>
    <defs></defs>
    <g id="Page-1" stroke="none" stroke-width="1" fill="none" fill-rule="evenodd" sketch:type="MSPage">
        <g id="mail.svg" sketch:type="MSLayerGroup" transform="translate(1.000000, 1.000000)">
            <path d="M17.059,0 C7.669,0 0.059,7.61 0.059,17 C0.059,26.389 7.67,33.999 17.059,33.999 C26.449,33.999 34.059,26.391 34.059,17 C34.059,7.61 26.45,-3.55271368e-15 17.059,-3.55271368e-15 L17.059,0 Z" id="Shape" stroke="#767676" sketch:type="MSShapeGroup"></path>
            <path d="M23.196,14.714 L22.844,14.267 L17.179,16.938 L11.441,14.267 L11.175,14.713 L17.171,19.625 L23.196,14.714 Z M24.4,10.023 L9.532,10 L8,12.505 L8,21.799 L9.614,23 L24.46,23 L26.001,21.8 L26.001,12.505 L24.401,10.023 L24.4,10.023 Z M23.882,20.834 L10.117,20.834 L10.117,12.167 L23.882,12.167 L23.882,20.834 L23.882,20.834 Z" id="Shape" fill="#767676" sketch:type="MSShapeGroup"></path>
        </g>
    </g>
</svg>